<?xml version="1.0" encoding="UTF-8" standalone="no"?><svg xmlns="http://www.w3.org/2000/svg" xmlns:xlink="http://www.w3.org/1999/xlink" contentStyleType="text/css" height="366px" preserveAspectRatio="none" style="width:484px;height:366px;background:#FFFFFF;" version="1.1" viewBox="0 0 484 366" width="484px" zoomAndPan="magnify"><defs/><g><rect fill="#FFFFFF" height="183.1094" style="stroke:#181818;stroke-width:1.0;" width="10" x="70" y="92.6094"/><rect fill="#FFFFFF" height="30.3516" style="stroke:#181818;stroke-width:1.0;" width="10" x="441" y="114.9609"/><rect fill="#FFFFFF" height="30.3516" style="stroke:#181818;stroke-width:1.0;" width="10" x="441" y="175.6641"/><rect fill="#FFFFFF" height="30.3516" style="stroke:#181818;stroke-width:1.0;" width="10" x="441" y="236.3672"/><line style="stroke:#181818;stroke-width:0.5;stroke-dasharray:5.0,5.0;" x1="75" x2="75" y1="82.6094" y2="284.7188"/><line style="stroke:#181818;stroke-width:0.5;stroke-dasharray:5.0,5.0;" x1="446" x2="446" y1="82.6094" y2="284.7188"/><text fill="#000000" font-family="sans-serif" font-size="14" lengthAdjust="spacing" textLength="134" x="5" y="79.5332">Registered Customer</text><ellipse cx="75" cy="13.5" fill="#E2E2F0" rx="8" ry="8" style="stroke:#181818;stroke-width:0.5;"/><path d="M75,21.5 L75,48.5 M62,29.5 L88,29.5 M75,48.5 L62,63.5 M75,48.5 L88,63.5 " fill="none" style="stroke:#181818;stroke-width:0.5;"/><text fill="#000000" font-family="sans-serif" font-size="14" lengthAdjust="spacing" textLength="134" x="5" y="298.252">Registered Customer</text><ellipse cx="75" cy="309.8281" fill="#E2E2F0" rx="8" ry="8" style="stroke:#181818;stroke-width:0.5;"/><path d="M75,317.8281 L75,344.8281 M62,325.8281 L88,325.8281 M75,344.8281 L62,359.8281 M75,344.8281 L88,359.8281 " fill="none" style="stroke:#181818;stroke-width:0.5;"/><rect fill="#E2E2F0" height="31.6094" rx="2.5" ry="2.5" style="stroke:#181818;stroke-width:0.5;" width="64" x="414" y="50"/><text fill="#000000" font-family="sans-serif" font-size="14" lengthAdjust="spacing" textLength="50" x="421" y="71.5332">:System</text><rect fill="#E2E2F0" height="31.6094" rx="2.5" ry="2.5" style="stroke:#181818;stroke-width:0.5;" width="64" x="414" y="283.7188"/><text fill="#000000" font-family="sans-serif" font-size="14" lengthAdjust="spacing" textLength="50" x="421" y="305.252">:System</text><rect fill="#FFFFFF" height="183.1094" style="stroke:#181818;stroke-width:1.0;" width="10" x="70" y="92.6094"/><rect fill="#FFFFFF" height="30.3516" style="stroke:#181818;stroke-width:1.0;" width="10" x="441" y="114.9609"/><rect fill="#FFFFFF" height="30.3516" style="stroke:#181818;stroke-width:1.0;" width="10" x="441" y="175.6641"/><rect fill="#FFFFFF" height="30.3516" style="stroke:#181818;stroke-width:1.0;" width="10" x="441" y="236.3672"/><polygon fill="#181818" points="429,110.9609,439,114.9609,429,118.9609,433,114.9609" style="stroke:#181818;stroke-width:1.0;"/><line style="stroke:#181818;stroke-width:1.0;" x1="80" x2="435" y1="114.9609" y2="114.9609"/><text fill="#000000" font-family="sans-serif" font-size="13" font-weight="bold" lengthAdjust="spacing" textLength="7" x="87" y="110.1045">1</text><text fill="#000000" font-family="sans-serif" font-size="13" lengthAdjust="spacing" textLength="150" x="98" y="110.1045">requests products catalog</text><polygon fill="#181818" points="91,141.3125,81,145.3125,91,149.3125,87,145.3125" style="stroke:#181818;stroke-width:1.0;"/><line style="stroke:#181818;stroke-width:1.0;stroke-dasharray:2.0,2.0;" x1="85" x2="445" y1="145.3125" y2="145.3125"/><text fill="#000000" font-family="sans-serif" font-size="13" font-weight="bold" lengthAdjust="spacing" textLength="7" x="97" y="140.4561">2</text><text fill="#000000" font-family="sans-serif" font-size="13" lengthAdjust="spacing" textLength="137" x="108" y="140.4561">shows products catalog</text><polygon fill="#181818" points="429,171.6641,439,175.6641,429,179.6641,433,175.6641" style="stroke:#181818;stroke-width:1.0;"/><line style="stroke:#181818;stroke-width:1.0;" x1="80" x2="435" y1="175.6641" y2="175.6641"/><text fill="#000000" font-family="sans-serif" font-size="13" font-weight="bold" lengthAdjust="spacing" textLength="7" x="87" y="170.8076">3</text><text fill="#000000" font-family="sans-serif" font-size="13" lengthAdjust="spacing" textLength="100" x="98" y="170.8076">selects a product</text><polygon fill="#181818" points="91,202.0156,81,206.0156,91,210.0156,87,206.0156" style="stroke:#181818;stroke-width:1.0;"/><line style="stroke:#181818;stroke-width:1.0;stroke-dasharray:2.0,2.0;" x1="85" x2="445" y1="206.0156" y2="206.0156"/><text fill="#000000" font-family="sans-serif" font-size="13" font-weight="bold" lengthAdjust="spacing" textLength="7" x="97" y="201.1592">4</text><text fill="#000000" font-family="sans-serif" font-size="13" lengthAdjust="spacing" textLength="326" x="108" y="201.1592">selects and asks to review and rate the selected product</text><polygon fill="#181818" points="429,232.3672,439,236.3672,429,240.3672,433,236.3672" style="stroke:#181818;stroke-width:1.0;"/><line style="stroke:#181818;stroke-width:1.0;" x1="80" x2="435" y1="236.3672" y2="236.3672"/><text fill="#000000" font-family="sans-serif" font-size="13" font-weight="bold" lengthAdjust="spacing" textLength="7" x="87" y="231.5107">5</text><text fill="#000000" font-family="sans-serif" font-size="13" lengthAdjust="spacing" textLength="122" x="98" y="231.5107">types requested data</text><polygon fill="#181818" points="91,262.7188,81,266.7188,91,270.7188,87,266.7188" style="stroke:#181818;stroke-width:1.0;"/><line style="stroke:#181818;stroke-width:1.0;stroke-dasharray:2.0,2.0;" x1="85" x2="445" y1="266.7188" y2="266.7188"/><text fill="#000000" font-family="sans-serif" font-size="13" font-weight="bold" lengthAdjust="spacing" textLength="7" x="97" y="261.8623">6</text><text fill="#000000" font-family="sans-serif" font-size="13" lengthAdjust="spacing" textLength="130" x="108" y="261.8623">shows all data created</text><!--MD5=[b0d1c08802d98842ad42b53683378775]
@startuml
'https://plantuml.com/sequence-diagram

autoactivate on
autonumber

actor "Registered Customer" as User
participant ":System" as System

activate User

User -> System: requests products catalog
User <- - System: shows products catalog
User -> System: selects a product
User <- - System: selects and asks to review and rate the selected product
User -> System: types requested data
User <- - System: shows all data created

@enduml

@startuml

autoactivate on
autonumber

actor "Registered Customer" as User
participant ":System" as System

activate User

User -> System: requests products catalog
User <- - System: shows products catalog
User -> System: selects a product
User <- - System: selects and asks to review and rate the selected product
User -> System: types requested data
User <- - System: shows all data created

@enduml

PlantUML version 1.2022.4(Sat Apr 09 14:29:17 BST 2022)
(GPL source distribution)
Java Runtime: OpenJDK Runtime Environment
JVM: OpenJDK 64-Bit Server VM
Default Encoding: Cp1252
Language: en
Country: US
--></g></svg>
