<?xml version="1.0" encoding="UTF-8" standalone="no"?><svg xmlns="http://www.w3.org/2000/svg" xmlns:xlink="http://www.w3.org/1999/xlink" contentScriptType="application/ecmascript" contentStyleType="text/css" height="377px" preserveAspectRatio="none" style="width:245px;height:377px;background:#FFFFFF;" version="1.1" viewBox="0 0 245 377" width="245px" zoomAndPan="magnify"><defs><filter height="300%" id="f1bvr3ul2q504" width="300%" x="-1" y="-1"><feGaussianBlur result="blurOut" stdDeviation="2.0"/><feColorMatrix in="blurOut" result="blurOut2" type="matrix" values="0 0 0 0 0 0 0 0 0 0 0 0 0 0 0 0 0 0 .4 0"/><feOffset dx="4.0" dy="4.0" in="blurOut2" result="blurOut3"/><feBlend in="SourceGraphic" in2="blurOut3" mode="normal"/></filter></defs><g><rect fill="#FFFFFF" filter="url(#f1bvr3ul2q504)" height="183.1094" style="stroke:#A80036;stroke-width:1.0;" width="10" x="17.5" y="99.6094"/><rect fill="#FFFFFF" filter="url(#f1bvr3ul2q504)" height="30.3516" style="stroke:#A80036;stroke-width:1.0;" width="10" x="196.5" y="121.9609"/><rect fill="#FFFFFF" filter="url(#f1bvr3ul2q504)" height="30.3516" style="stroke:#A80036;stroke-width:1.0;" width="10" x="196.5" y="182.6641"/><rect fill="#FFFFFF" filter="url(#f1bvr3ul2q504)" height="30.3516" style="stroke:#A80036;stroke-width:1.0;" width="10" x="196.5" y="243.3672"/><line style="stroke:#A80036;stroke-width:1.0;stroke-dasharray:5.0,5.0;" x1="22" x2="22" y1="89.6094" y2="291.7188"/><line style="stroke:#A80036;stroke-width:1.0;stroke-dasharray:5.0,5.0;" x1="201.5" x2="201.5" y1="89.6094" y2="291.7188"/><text fill="#000000" font-family="sans-serif" font-size="14" lengthAdjust="spacing" textLength="29" x="5" y="86.5332">User</text><ellipse cx="22.5" cy="15" fill="#FEFECE" filter="url(#f1bvr3ul2q504)" rx="8" ry="8" style="stroke:#A80036;stroke-width:2.0;"/><path d="M22.5,23 L22.5,50 M9.5,31 L35.5,31 M22.5,50 L9.5,65 M22.5,50 L35.5,65 " fill="none" filter="url(#f1bvr3ul2q504)" style="stroke:#A80036;stroke-width:2.0;"/><text fill="#000000" font-family="sans-serif" font-size="14" lengthAdjust="spacing" textLength="29" x="5" y="305.252">User</text><ellipse cx="22.5" cy="318.3281" fill="#FEFECE" filter="url(#f1bvr3ul2q504)" rx="8" ry="8" style="stroke:#A80036;stroke-width:2.0;"/><path d="M22.5,326.3281 L22.5,353.3281 M9.5,334.3281 L35.5,334.3281 M22.5,353.3281 L9.5,368.3281 M22.5,353.3281 L35.5,368.3281 " fill="none" filter="url(#f1bvr3ul2q504)" style="stroke:#A80036;stroke-width:2.0;"/><rect fill="#FEFECE" filter="url(#f1bvr3ul2q504)" height="31.6094" style="stroke:#A80036;stroke-width:1.5;" width="64" x="167.5" y="53"/><text fill="#000000" font-family="sans-serif" font-size="14" lengthAdjust="spacing" textLength="50" x="174.5" y="74.5332">:System</text><rect fill="#FEFECE" filter="url(#f1bvr3ul2q504)" height="31.6094" style="stroke:#A80036;stroke-width:1.5;" width="64" x="167.5" y="290.7188"/><text fill="#000000" font-family="sans-serif" font-size="14" lengthAdjust="spacing" textLength="50" x="174.5" y="312.252">:System</text><rect fill="#FFFFFF" filter="url(#f1bvr3ul2q504)" height="183.1094" style="stroke:#A80036;stroke-width:1.0;" width="10" x="17.5" y="99.6094"/><rect fill="#FFFFFF" filter="url(#f1bvr3ul2q504)" height="30.3516" style="stroke:#A80036;stroke-width:1.0;" width="10" x="196.5" y="121.9609"/><rect fill="#FFFFFF" filter="url(#f1bvr3ul2q504)" height="30.3516" style="stroke:#A80036;stroke-width:1.0;" width="10" x="196.5" y="182.6641"/><rect fill="#FFFFFF" filter="url(#f1bvr3ul2q504)" height="30.3516" style="stroke:#A80036;stroke-width:1.0;" width="10" x="196.5" y="243.3672"/><polygon fill="#A80036" points="184.5,117.9609,194.5,121.9609,184.5,125.9609,188.5,121.9609" style="stroke:#A80036;stroke-width:1.0;"/><line style="stroke:#A80036;stroke-width:1.0;" x1="27.5" x2="190.5" y1="121.9609" y2="121.9609"/><text fill="#000000" font-family="sans-serif" font-size="13" font-weight="bold" lengthAdjust="spacing" textLength="7" x="34.5" y="117.1045">1</text><text fill="#000000" font-family="sans-serif" font-size="13" lengthAdjust="spacing" textLength="139" x="45.5" y="117.1045">asks to list their reviews</text><polygon fill="#A80036" points="38.5,148.3125,28.5,152.3125,38.5,156.3125,34.5,152.3125" style="stroke:#A80036;stroke-width:1.0;"/><line style="stroke:#A80036;stroke-width:1.0;stroke-dasharray:2.0,2.0;" x1="32.5" x2="200.5" y1="152.3125" y2="152.3125"/><text fill="#000000" font-family="sans-serif" font-size="13" font-weight="bold" lengthAdjust="spacing" textLength="7" x="44.5" y="147.4561">2</text><text fill="#000000" font-family="sans-serif" font-size="13" lengthAdjust="spacing" textLength="99" x="55.5" y="147.4561">requests reviewId</text><polygon fill="#A80036" points="184.5,178.6641,194.5,182.6641,184.5,186.6641,188.5,182.6641" style="stroke:#A80036;stroke-width:1.0;"/><line style="stroke:#A80036;stroke-width:1.0;" x1="27.5" x2="190.5" y1="182.6641" y2="182.6641"/><text fill="#000000" font-family="sans-serif" font-size="13" font-weight="bold" lengthAdjust="spacing" textLength="7" x="34.5" y="177.8076">3</text><text fill="#000000" font-family="sans-serif" font-size="13" lengthAdjust="spacing" textLength="81" x="45.5" y="177.8076">types reviewId</text><polygon fill="#A80036" points="38.5,209.0156,28.5,213.0156,38.5,217.0156,34.5,213.0156" style="stroke:#A80036;stroke-width:1.0;"/><line style="stroke:#A80036;stroke-width:1.0;stroke-dasharray:2.0,2.0;" x1="32.5" x2="200.5" y1="213.0156" y2="213.0156"/><text fill="#000000" font-family="sans-serif" font-size="13" font-weight="bold" lengthAdjust="spacing" textLength="7" x="44.5" y="208.1592">4</text><text fill="#000000" font-family="sans-serif" font-size="13" lengthAdjust="spacing" textLength="76" x="55.5" y="208.1592">shows review</text><polygon fill="#A80036" points="184.5,239.3672,194.5,243.3672,184.5,247.3672,188.5,243.3672" style="stroke:#A80036;stroke-width:1.0;"/><line style="stroke:#A80036;stroke-width:1.0;" x1="27.5" x2="190.5" y1="243.3672" y2="243.3672"/><text fill="#000000" font-family="sans-serif" font-size="13" font-weight="bold" lengthAdjust="spacing" textLength="7" x="34.5" y="238.5107">5</text><text fill="#000000" font-family="sans-serif" font-size="13" lengthAdjust="spacing" textLength="85" x="45.5" y="238.5107">types changes</text><polygon fill="#A80036" points="38.5,269.7188,28.5,273.7188,38.5,277.7188,34.5,273.7188" style="stroke:#A80036;stroke-width:1.0;"/><line style="stroke:#A80036;stroke-width:1.0;stroke-dasharray:2.0,2.0;" x1="32.5" x2="200.5" y1="273.7188" y2="273.7188"/><text fill="#000000" font-family="sans-serif" font-size="13" font-weight="bold" lengthAdjust="spacing" textLength="7" x="44.5" y="268.8623">6</text><text fill="#000000" font-family="sans-serif" font-size="13" lengthAdjust="spacing" textLength="126" x="55.5" y="268.8623">shows updated review</text><!--MD5=[9e53e972ab29619804af35ff3744b320]
@startuml
'https://plantuml.com/sequence-diagram

autoactivate on
autonumber

actor "User" as user
participant ":System" as System

activate user

user -> System: asks to list their reviews
System - -> user: requests reviewId
user -> System: types reviewId
System - -> user: shows review
user -> System: types changes
System - -> user: shows updated review

@enduml

@startuml

autoactivate on
autonumber

actor "User" as user
participant ":System" as System

activate user

user -> System: asks to list their reviews
System - -> user: requests reviewId
user -> System: types reviewId
System - -> user: shows review
user -> System: types changes
System - -> user: shows updated review

@enduml

PlantUML version 1.2021.11(Sat Oct 02 14:26:11 BST 2021)
(GPL source distribution)
Java Runtime: OpenJDK Runtime Environment
JVM: OpenJDK 64-Bit Server VM
Default Encoding: Cp1252
Language: pt
Country: PT
--></g></svg>